<svg xmlns="http://www.w3.org/2000/svg" width="1600" height="900" viewBox="0 0 1600 900" fill="none">
  <defs>
    <linearGradient id="bg2" x1="0" y1="0" x2="1600" y2="900" gradientUnits="userSpaceOnUse">
      <stop stop-color="#0B1020"/>
      <stop offset="0.55" stop-color="#111827"/>
      <stop offset="1" stop-color="#070A12"/>
    </linearGradient>
    <radialGradient id="glow" cx="0" cy="0" r="1" gradientUnits="userSpaceOnUse" gradientTransform="translate(1140 300) rotate(135) scale(640 520)">
      <stop stop-color="#A78BFA" stop-opacity="0.85"/>
      <stop offset="1" stop-color="#0EA5E9" stop-opacity="0"/>
    </radialGradient>
    <linearGradient id="line" x1="260" y1="520" x2="1380" y2="520" gradientUnits="userSpaceOnUse">
      <stop stop-color="#A78BFA" stop-opacity="0"/>
      <stop offset="0.5" stop-color="#A78BFA" stop-opacity="0.8"/>
      <stop offset="1" stop-color="#0EA5E9" stop-opacity="0"/>
    </linearGradient>
  </defs>

  <rect width="1600" height="900" fill="url(#bg2)"/>
  <rect width="1600" height="900" fill="url(#glow)"/>

  <g opacity="0.55">
    <path d="M220 620C420 500 560 480 760 480C1020 480 1200 380 1420 250" stroke="url(#line)" stroke-width="8" stroke-linecap="round"/>
    <circle cx="760" cy="480" r="10" fill="#A78BFA"/>
    <circle cx="1010" cy="420" r="10" fill="#60A5FA"/>
    <circle cx="1240" cy="330" r="10" fill="#0EA5E9"/>
  </g>

  <g opacity="0.18">
    <rect x="190" y="170" width="560" height="420" rx="30" fill="#FFFFFF"/>
    <rect x="230" y="220" width="260" height="18" rx="9" fill="#111827" opacity="0.14"/>
    <rect x="230" y="254" width="440" height="16" rx="8" fill="#111827" opacity="0.09"/>
    <rect x="230" y="284" width="410" height="16" rx="8" fill="#111827" opacity="0.09"/>
    <rect x="230" y="332" width="490" height="180" rx="18" fill="#111827" opacity="0.06"/>
    <rect x="230" y="536" width="160" height="34" rx="17" fill="#A78BFA" opacity="0.35"/>
    <rect x="405" y="536" width="160" height="34" rx="17" fill="#60A5FA" opacity="0.25"/>
  </g>
</svg>


